<?xml version="1.0" encoding="UTF-8" standalone="no"?>
<!DOCTYPE svg PUBLIC "-//W3C//DTD SVG 1.1//EN"
 "http://www.w3.org/Graphics/SVG/1.1/DTD/svg11.dtd">
<!-- Generated by graphviz version 2.40.1 (20161225.0304)
 -->
<!-- Title: dependencies Pages: 1 -->
<svg width="504pt" height="284pt"
 viewBox="0.00 0.00 504.00 284.00" xmlns="http://www.w3.org/2000/svg" xmlns:xlink="http://www.w3.org/1999/xlink">
<g id="graph0" class="graph" transform="scale(1 1) rotate(0) translate(4 280)">
<title>dependencies</title>
<polygon fill="#ffffff" stroke="transparent" points="-4,4 -4,-280 500,-280 500,4 -4,4"/>
<text text-anchor="start" x="227.0091" y="-42.4" font-family="sans-serif" font-weight="bold" font-size="14.00" fill="#000000">Legend</text>
<polygon fill="#ffffb3" stroke="transparent" points="14,-10 14,-30 34,-30 34,-10 14,-10"/>
<text text-anchor="start" x="37.629" y="-15.4" font-family="sans-serif" font-size="14.00" fill="#000000"> &#160;Declarations</text>
<polygon fill="#8dd3c7" stroke="transparent" points="127,-10 127,-30 147,-30 147,-10 127,-10"/>
<text text-anchor="start" x="150.7251" y="-15.4" font-family="sans-serif" font-size="14.00" fill="#000000"> &#160;Module</text>
<polygon fill="#80b1d3" stroke="transparent" points="213,-10 213,-30 233,-30 233,-10 213,-10"/>
<text text-anchor="start" x="236.7812" y="-15.4" font-family="sans-serif" font-size="14.00" fill="#000000"> &#160;Bootstrap</text>
<polygon fill="#fdb462" stroke="transparent" points="310,-10 310,-30 330,-30 330,-10 310,-10"/>
<text text-anchor="start" x="333.6732" y="-15.4" font-family="sans-serif" font-size="14.00" fill="#000000"> &#160;Providers</text>
<polygon fill="#fb8072" stroke="transparent" points="406,-10 406,-30 426,-30 426,-10 406,-10"/>
<text text-anchor="start" x="429.7258" y="-15.4" font-family="sans-serif" font-size="14.00" fill="#000000"> &#160;Exports</text>
<g id="clust1" class="cluster">
<title>cluster_NgxNotifierModule</title>
<polygon fill="none" stroke="#000000" stroke-dasharray="1,5" points="58,-70 58,-268 438,-268 438,-70 58,-70"/>
</g>
<g id="clust2" class="cluster">
<title>cluster_NgxNotifierModule_declarations</title>
<polygon fill="none" stroke="#000000" points="264,-78 264,-130 430,-130 430,-78 264,-78"/>
</g>
<g id="clust5" class="cluster">
<title>cluster_NgxNotifierModule_exports</title>
<polygon fill="none" stroke="#000000" points="168,-208 168,-260 338,-260 338,-208 168,-208"/>
</g>
<g id="clust7" class="cluster">
<title>cluster_NgxNotifierModule_providers</title>
<polygon fill="none" stroke="#000000" points="66,-78 66,-130 256,-130 256,-78 66,-78"/>
</g>
<!-- NgxNotifierComponent -->
<g id="node1" class="node">
<title>NgxNotifierComponent</title>
<polygon fill="#ffffb3" stroke="#000000" points="421.7534,-122 272.2466,-122 272.2466,-86 421.7534,-86 421.7534,-122"/>
<text text-anchor="middle" x="347" y="-99.8" font-family="Times,serif" font-size="14.00" fill="#000000">NgxNotifierComponent</text>
</g>
<!-- NgxNotifierModule -->
<g id="node2" class="node">
<title>NgxNotifierModule</title>
<polygon fill="#8dd3c7" stroke="#000000" points="316.9706,-187 313.9706,-191 292.9706,-191 289.9706,-187 189.0294,-187 189.0294,-151 316.9706,-151 316.9706,-187"/>
<text text-anchor="middle" x="253" y="-164.8" font-family="Times,serif" font-size="14.00" fill="#000000">NgxNotifierModule</text>
</g>
<!-- NgxNotifierComponent&#45;&gt;NgxNotifierModule -->
<g id="edge1" class="edge">
<title>NgxNotifierComponent&#45;&gt;NgxNotifierModule</title>
<path fill="none" stroke="#000000" d="M294.5544,-122.1061C294.5544,-122.1061 294.5544,-140.991 294.5544,-140.991"/>
<polygon fill="#000000" stroke="#000000" points="291.0544,-140.9909 294.5544,-150.991 298.0544,-140.991 291.0544,-140.9909"/>
</g>
<!-- NgxNotifierComponent  -->
<g id="node3" class="node">
<title>NgxNotifierComponent </title>
<polygon fill="#fb8072" stroke="#000000" points="329.7534,-252 176.2466,-252 176.2466,-216 329.7534,-216 329.7534,-252"/>
<text text-anchor="middle" x="253" y="-229.8" font-family="Times,serif" font-size="14.00" fill="#000000">NgxNotifierComponent </text>
</g>
<!-- NgxNotifierModule&#45;&gt;NgxNotifierComponent  -->
<g id="edge2" class="edge">
<title>NgxNotifierModule&#45;&gt;NgxNotifierComponent </title>
<path fill="none" stroke="#000000" stroke-dasharray="5,2" d="M253,-187.1061C253,-187.1061 253,-205.991 253,-205.991"/>
<polygon fill="#000000" stroke="#000000" points="249.5001,-205.9909 253,-215.991 256.5001,-205.991 249.5001,-205.9909"/>
</g>
<!-- NgxNotifierService -->
<g id="node4" class="node">
<title>NgxNotifierService</title>
<ellipse fill="#fdb462" stroke="#000000" cx="161" cy="-104" rx="87.375" ry="18"/>
<text text-anchor="middle" x="161" y="-99.8" font-family="Times,serif" font-size="14.00" fill="#000000">NgxNotifierService</text>
</g>
<!-- NgxNotifierService&#45;&gt;NgxNotifierModule -->
<g id="edge3" class="edge">
<title>NgxNotifierService&#45;&gt;NgxNotifierModule</title>
<path fill="none" stroke="#000000" d="M218.601,-117.7848C218.601,-117.7848 218.601,-140.5475 218.601,-140.5475"/>
<polygon fill="#000000" stroke="#000000" points="215.1011,-140.5474 218.601,-150.5475 222.1011,-140.5475 215.1011,-140.5474"/>
</g>
</g>
</svg>
