<?xml version="1.0" encoding="UTF-8" standalone="no"?>
<!DOCTYPE svg PUBLIC "-//W3C//DTD SVG 1.1//EN"
 "http://www.w3.org/Graphics/SVG/1.1/DTD/svg11.dtd">
<!-- Generated by graphviz version 2.40.1 (20161225.0304)
 -->
<!-- Title: dependencies Pages: 1 -->
<svg width="679pt" height="284pt"
 viewBox="0.00 0.00 679.00 284.00" xmlns="http://www.w3.org/2000/svg" xmlns:xlink="http://www.w3.org/1999/xlink">
<g id="graph0" class="graph" transform="scale(1 1) rotate(0) translate(4 280)">
<title>dependencies</title>
<polygon fill="#ffffff" stroke="transparent" points="-4,4 -4,-280 675,-280 675,4 -4,4"/>
<text text-anchor="start" x="314.5091" y="-42.4" font-family="sans-serif" font-weight="bold" font-size="14.00" fill="#000000">Legend</text>
<polygon fill="#ffffb3" stroke="transparent" points="101.5,-10 101.5,-30 121.5,-30 121.5,-10 101.5,-10"/>
<text text-anchor="start" x="125.129" y="-15.4" font-family="sans-serif" font-size="14.00" fill="#000000"> &#160;Declarations</text>
<polygon fill="#8dd3c7" stroke="transparent" points="214.5,-10 214.5,-30 234.5,-30 234.5,-10 214.5,-10"/>
<text text-anchor="start" x="238.2251" y="-15.4" font-family="sans-serif" font-size="14.00" fill="#000000"> &#160;Module</text>
<polygon fill="#80b1d3" stroke="transparent" points="300.5,-10 300.5,-30 320.5,-30 320.5,-10 300.5,-10"/>
<text text-anchor="start" x="324.2812" y="-15.4" font-family="sans-serif" font-size="14.00" fill="#000000"> &#160;Bootstrap</text>
<polygon fill="#fdb462" stroke="transparent" points="397.5,-10 397.5,-30 417.5,-30 417.5,-10 397.5,-10"/>
<text text-anchor="start" x="421.1732" y="-15.4" font-family="sans-serif" font-size="14.00" fill="#000000"> &#160;Providers</text>
<polygon fill="#fb8072" stroke="transparent" points="493.5,-10 493.5,-30 513.5,-30 513.5,-10 493.5,-10"/>
<text text-anchor="start" x="517.2258" y="-15.4" font-family="sans-serif" font-size="14.00" fill="#000000"> &#160;Exports</text>
<g id="clust1" class="cluster">
<title>cluster_NgxNotifierModule</title>
<polygon fill="none" stroke="#000000" stroke-dasharray="1,5" points="8,-70 8,-268 663,-268 663,-70 8,-70"/>
</g>
<g id="clust2" class="cluster">
<title>cluster_NgxNotifierModule_declarations</title>
<polygon fill="none" stroke="#000000" points="489,-78 489,-130 655,-130 655,-78 489,-78"/>
</g>
<g id="clust5" class="cluster">
<title>cluster_NgxNotifierModule_exports</title>
<polygon fill="none" stroke="#000000" points="301,-208 301,-260 471,-260 471,-208 301,-208"/>
</g>
<g id="clust7" class="cluster">
<title>cluster_NgxNotifierModule_providers</title>
<polygon fill="none" stroke="#000000" points="16,-78 16,-130 481,-130 481,-78 16,-78"/>
</g>
<!-- NgxNotifierComponent -->
<g id="node1" class="node">
<title>NgxNotifierComponent</title>
<polygon fill="#ffffb3" stroke="#000000" points="646.7534,-122 497.2466,-122 497.2466,-86 646.7534,-86 646.7534,-122"/>
<text text-anchor="middle" x="572" y="-99.8" font-family="Times,serif" font-size="14.00" fill="#000000">NgxNotifierComponent</text>
</g>
<!-- NgxNotifierModule -->
<g id="node2" class="node">
<title>NgxNotifierModule</title>
<polygon fill="#8dd3c7" stroke="#000000" points="449.9706,-187 446.9706,-191 425.9706,-191 422.9706,-187 322.0294,-187 322.0294,-151 449.9706,-151 449.9706,-187"/>
<text text-anchor="middle" x="386" y="-164.8" font-family="Times,serif" font-size="14.00" fill="#000000">NgxNotifierModule</text>
</g>
<!-- NgxNotifierComponent&#45;&gt;NgxNotifierModule -->
<g id="edge1" class="edge">
<title>NgxNotifierComponent&#45;&gt;NgxNotifierModule</title>
<path fill="none" stroke="#000000" d="M572,-122.1061C572,-141.3391 572,-169 572,-169 572,-169 460.0106,-169 460.0106,-169"/>
<polygon fill="#000000" stroke="#000000" points="460.0107,-165.5001 450.0106,-169 460.0106,-172.5001 460.0107,-165.5001"/>
</g>
<!-- NgxNotifierComponent  -->
<g id="node3" class="node">
<title>NgxNotifierComponent </title>
<polygon fill="#fb8072" stroke="#000000" points="462.7534,-252 309.2466,-252 309.2466,-216 462.7534,-216 462.7534,-252"/>
<text text-anchor="middle" x="386" y="-229.8" font-family="Times,serif" font-size="14.00" fill="#000000">NgxNotifierComponent </text>
</g>
<!-- NgxNotifierModule&#45;&gt;NgxNotifierComponent  -->
<g id="edge2" class="edge">
<title>NgxNotifierModule&#45;&gt;NgxNotifierComponent </title>
<path fill="none" stroke="#000000" stroke-dasharray="5,2" d="M386,-187.1061C386,-187.1061 386,-205.991 386,-205.991"/>
<polygon fill="#000000" stroke="#000000" points="382.5001,-205.9909 386,-215.991 389.5001,-205.991 382.5001,-205.9909"/>
</g>
<!-- NgxNotifierService -->
<g id="node4" class="node">
<title>NgxNotifierService</title>
<ellipse fill="#fdb462" stroke="#000000" cx="386" cy="-104" rx="87.375" ry="18"/>
<text text-anchor="middle" x="386" y="-99.8" font-family="Times,serif" font-size="14.00" fill="#000000">NgxNotifierService</text>
</g>
<!-- NgxNotifierService&#45;&gt;NgxNotifierModule -->
<g id="edge3" class="edge">
<title>NgxNotifierService&#45;&gt;NgxNotifierModule</title>
<path fill="none" stroke="#000000" d="M386,-122.1061C386,-122.1061 386,-140.991 386,-140.991"/>
<polygon fill="#000000" stroke="#000000" points="382.5001,-140.9909 386,-150.991 389.5001,-140.991 382.5001,-140.9909"/>
</g>
<!-- NgxNotifierSubscriberService -->
<g id="node5" class="node">
<title>NgxNotifierSubscriberService</title>
<ellipse fill="#fdb462" stroke="#000000" cx="152" cy="-104" rx="128.4666" ry="18"/>
<text text-anchor="middle" x="152" y="-99.8" font-family="Times,serif" font-size="14.00" fill="#000000">NgxNotifierSubscriberService</text>
</g>
<!-- NgxNotifierSubscriberService&#45;&gt;NgxNotifierModule -->
<g id="edge4" class="edge">
<title>NgxNotifierSubscriberService&#45;&gt;NgxNotifierModule</title>
<path fill="none" stroke="#000000" d="M152,-122.1061C152,-141.3391 152,-169 152,-169 152,-169 311.749,-169 311.749,-169"/>
<polygon fill="#000000" stroke="#000000" points="311.749,-172.5001 321.749,-169 311.7489,-165.5001 311.749,-172.5001"/>
</g>
</g>
</svg>
